<?xml version="1.0" encoding="utf-8"?>
<!-- Generator: Adobe Illustrator 19.0.0, SVG Export Plug-In . SVG Version: 6.00 Build 0)  -->
<svg version="1.1" id="Layer_1" xmlns="http://www.w3.org/2000/svg" xmlns:xlink="http://www.w3.org/1999/xlink" x="0px" y="0px"
	 viewBox="0 0 612 792" style="enable-background:new 0 0 612 792;" xml:space="preserve">
<style type="text/css">
	.st0{fill:#3953A4;stroke:#3A54A4;stroke-miterlimit:10;}
	.st1{fill:#006838;stroke:#016938;stroke-miterlimit:10;}
	.st2{fill:#009444;stroke:#009444;stroke-miterlimit:10;}
	.st3{fill:#39B54A;stroke:#3BB54A;stroke-miterlimit:10;}
	.st4{font-family:'BerlinSansFB-Reg';}
	.st5{font-size:16.3135px;}
</style>
<g id="XMLID_31_">
	<g id="XMLID_8_">
		<g id="XMLID_7_">
			<path id="XMLID_2_" class="st0" d="M257.9,200.9c0,0,13.7,7.8,13.7,18.4s-6.1,16.5-6.1,16.5s14.4-0.9,21.2-21.2
				c7-20.9-8.8-41.8-8.8-41.8s6.4,25.4,1.2,34.8C277,211.6,268.1,200.9,257.9,200.9z"/>
			<ellipse id="XMLID_1_" class="st0" cx="269.9" cy="192.3" rx="9.2" ry="8.9"/>
		</g>
		<g id="XMLID_5_">
			<path id="XMLID_6_" class="st1" d="M279.4,111.2c0,0-29.9,43.1-5.4,54.7l1.4-11.2l-7.8-12.7l8.4,8.1l0.8-6.3l-6.1-8.7l6.2,3.5
				l2.4-17.7l1.6,14.1l5.7-5.4l-5.3,8.2l0.8,5.7l8.2-4.9l-7.6,9.5l0.5,3.4l7.1-3.4l-6.7,6.6l1.5,11.2
				C308.8,153.9,279.4,111.2,279.4,111.2z"/>
			<path id="XMLID_3_" class="st2" d="M239.6,145.1c0,0,1.7,31.3,17.5,27.8l-3.5-5.8l-8.4-3.1l6.9,0.7l-1.9-3.3l-6.1-1.9l4.2-0.6
				l-5.4-9.2l5.9,6.1l0.7-4.6l0.5,5.8l2.5,2.4l2.1-5.3l-0.1,7.3l1.5,1.4l2.1-4.2l-0.8,5.6l4.8,4.7
				C269.1,154.5,239.6,145.1,239.6,145.1z"/>
			<path id="XMLID_4_" class="st3" d="M243.8,126.3c0,0,1.3,24,13.4,21.3l-2.6-4.4l-6.4-2.4l5.3,0.6l-1.5-2.5l-4.6-1.4l3.2-0.5
				l-4.1-7.1l4.5,4.6l0.5-3.5l0.4,4.4l1.9,1.9l1.6-4.1l-0.1,5.6l1.1,1.1l1.6-3.3l-0.6,4.3l3.7,3.6
				C266.4,133.5,243.8,126.3,243.8,126.3z"/>
		</g>
		<g id="XMLID_9_">
			<path id="XMLID_12_" class="st1" d="M197.6,151.7c0,0,22.3,47.4,44.7,32l-9-6.8l-14.9,0.4l11.2-3.2l-5.1-3.8l-10.6,0.9l6.1-3.6
				l-14.1-11l13,5.7l-1.8-7.6l4.4,8.7l5.4,2.2l-0.1-9.6l4.5,11.4l3.1,1.3l0.6-7.9l2.3,9.1l10.4,4.3
				C249.3,147.6,197.6,151.7,197.6,151.7z"/>
			<path id="XMLID_11_" class="st2" d="M207.1,203.1c0,0,27.9,14.1,32.8-1.3l-6.7,0.1l-6.9,5.7l4.1-5.6l-3.8,0.1l-4.7,4.3l1.5-4
				l-10.7,0l8.2-2.1l-3.6-2.9l5.3,2.4l3.3-0.9l-3.6-4.5l6.3,3.7l2-0.5l-2.6-3.9l4.4,3.4l6.5-1.8
				C229.9,182.2,207.1,203.1,207.1,203.1z"/>
			<path id="XMLID_10_" class="st3" d="M192.8,190.1c0,0,21.4,10.8,25.2-1l-5.2,0.1l-5.3,4.3l3.2-4.3l-2.9,0l-3.6,3.3l1.2-3l-8.2,0
				l6.3-1.6l-2.8-2.2l4,1.9l2.6-0.7l-2.7-3.4l4.8,2.8l1.5-0.4l-2-3l3.4,2.6l5-1.4C210.4,174.1,192.8,190.1,192.8,190.1z"/>
		</g>
		<g id="XMLID_13_">
			<path id="XMLID_16_" class="st1" d="M184.4,246.3c0,0,52.2,4.4,50.1-22.7l-10.4,4.4l-7.1,13.1l2.8-11.3l-5.8,2.5l-4.5,9.6
				l-0.1-7.1l-16.6,6.8l11.4-8.4l-7.5-2.2l9.7,0.5l4.6-3.5l-8.4-4.7l12.1,1.8l2.7-2.1l-6.5-4.5l9,2.5l8.9-6.9
				C206.7,199.5,184.4,246.3,184.4,246.3z"/>
			<path id="XMLID_15_" class="st2" d="M233.7,263.9c0,0,26.2-17.1,15.3-29.1l-3.3,5.9l1.5,8.8l-2.8-6.4l-1.8,3.3l1.4,6.2l-2.7-3.3
				l-5.3,9.3l2.3-8.1l-4.3,1.7l4.8-3.3l0.9-3.4l-5.7,0.9l6.3-3.6l0.5-2l-4.7,0.3l5.2-2.1l1.7-6.5C227,233.6,233.7,263.9,233.7,263.9
				z"/>
			<path id="XMLID_14_" class="st3" d="M215.3,269.7c0,0,20.1-13.1,11.7-22.3l-2.5,4.5l1.1,6.8l-2.2-4.9l-1.4,2.5l1.1,4.7l-2-2.5
				l-4.1,7.1l1.8-6.2l-3.3,1.3l3.6-2.6l0.7-2.6l-4.3,0.7l4.9-2.7l0.4-1.5l-3.6,0.2l4-1.6l1.3-5C210.2,246.5,215.3,269.7,215.3,269.7
				z"/>
		</g>
		<g id="XMLID_17_">
			<path id="XMLID_20_" class="st1" d="M266,297.8c0,0,29.9-43.1,5.4-54.7l-1.4,11.2l7.8,12.7l-8.4-8.1l-0.8,6.3l6.1,8.7l-6.2-3.5
				l-2.4,17.7l-1.6-14.1l-5.7,5.4l5.3-8.2l-0.8-5.7l-8.2,4.9l7.6-9.5l-0.5-3.4l-7.1,3.4l6.7-6.6l-1.5-11.2
				C236.6,255.1,266,297.8,266,297.8z"/>
			<path id="XMLID_19_" class="st2" d="M305.8,263.9c0,0-1.7-31.3-17.5-27.8l3.5,5.8l8.4,3.1l-6.9-0.7l1.9,3.3l6.1,1.9l-4.2,0.6
				l5.4,9.2l-5.9-6.1l-0.7,4.6l-0.5-5.8l-2.5-2.4l-2.1,5.3l0.1-7.3l-1.5-1.4l-2.1,4.2l0.8-5.6l-4.8-4.7
				C276.3,254.6,305.8,263.9,305.8,263.9z"/>
			<path id="XMLID_18_" class="st3" d="M301.7,282.8c0,0-1.3-24-13.4-21.3l2.6,4.4l6.4,2.4l-5.3-0.6l1.5,2.5l4.6,1.4l-3.2,0.5
				l4.1,7.1l-4.5-4.6l-0.5,3.5l-0.4-4.4l-1.9-1.9l-1.6,4.1l0.1-5.6l-1.1-1.1l-1.6,3.3l0.6-4.3l-3.7-3.6
				C279,275.6,301.7,282.8,301.7,282.8z"/>
		</g>
		<g id="XMLID_21_">
			<path id="XMLID_24_" class="st1" d="M352.5,257.5c0,0-22.3-47.4-44.7-32l9,6.8l14.9-0.4l-11.2,3.2l5.1,3.8l10.6-0.9l-6.1,3.6
				l14.1,11l-13-5.7l1.8,7.6l-4.4-8.7l-5.4-2.2l0.1,9.6l-4.5-11.4l-3.1-1.3l-0.6,7.9l-2.3-9.1l-10.4-4.3
				C300.8,261.6,352.5,257.5,352.5,257.5z"/>
			<path id="XMLID_23_" class="st2" d="M343.1,206.1c0,0-27.9-14.1-32.8,1.3l6.7-0.1l6.9-5.7l-4.1,5.6l3.8-0.1l4.7-4.3l-1.5,4
				l10.7,0l-8.2,2.1l3.6,2.9l-5.3-2.4l-3.3,0.9l3.6,4.5l-6.3-3.7l-2,0.5l2.6,3.9l-4.4-3.4l-6.5,1.8
				C320.2,227,343.1,206.1,343.1,206.1z"/>
			<path id="XMLID_22_" class="st3" d="M357.3,219.1c0,0-21.4-10.8-25.2,1l5.2-0.1l5.3-4.3l-3.2,4.3l2.9,0l3.6-3.3l-1.2,3l8.2,0
				l-6.3,1.6l2.8,2.2l-4-1.9l-2.6,0.7l2.7,3.4l-4.8-2.8l-1.5,0.4l2,3l-3.4-2.6l-5,1.4C339.8,235.1,357.3,219.1,357.3,219.1z"/>
		</g>
		<g id="XMLID_25_">
			<path id="XMLID_28_" class="st1" d="M359.6,162.9c0,0-52.2-4.4-50.1,22.7l10.4-4.4l7.1-13.1l-2.8,11.3l5.8-2.5l4.5-9.6l0.1,7.1
				l16.6-6.8l-11.4,8.4l7.5,2.2l-9.7-0.5l-4.6,3.5l8.4,4.7l-12.1-1.8l-2.7,2.1l6.5,4.5l-9-2.5l-8.9,6.9
				C337.3,209.7,359.6,162.9,359.6,162.9z"/>
			<path id="XMLID_27_" class="st2" d="M310.4,145.3c0,0-26.2,17.1-15.3,29.1l3.3-5.9l-1.5-8.8l2.8,6.4l1.8-3.3l-1.4-6.2l2.7,3.3
				l5.3-9.3l-2.3,8.1l4.3-1.7l-4.8,3.3l-0.9,3.4l5.7-0.9l-6.3,3.6l-0.5,2l4.7-0.3l-5.2,2.1l-1.7,6.5
				C317,175.6,310.4,145.3,310.4,145.3z"/>
			<path id="XMLID_26_" class="st3" d="M328.8,139.5c0,0-20.1,13.1-11.7,22.3l2.5-4.5l-1.1-6.8l2.2,4.9l1.4-2.5l-1.1-4.7l2,2.5
				l4.1-7.1l-1.8,6.2l3.3-1.3l-3.6,2.6l-0.7,2.6l4.3-0.7l-4.9,2.7l-0.4,1.5l3.6-0.2l-4,1.6l-1.3,5
				C333.9,162.7,328.8,139.5,328.8,139.5z"/>
		</g>
	</g>
	<text id="XMLID_29_" transform="matrix(1 0 0 1 171.4318 313.6416)" class="st4 st5">Young World 4 Climate Action</text>
</g>
</svg>
